# xmcd
#
# Track frame offsets: 
#        150
#        12647
#        28932
#        43257
#        59166
#        76467
#        95508
#        119977
#        130268
#        157795
#        175231
#        191140
#        204902
#        226654
#        257205
#        268446
#        280754
#        292583
#        307202
#        319077
#        332675
#
# Disc length: 4596 seconds
#
# Revision: 0
# Processed by: cddbd v1.4PL0 Copyright (c) Steve Scherf et al.
# Submitted via: ExactAudioCopy v0.90b4
#
DISCID=4211f215
DTITLE=Bob Dylan - The Essential
DYEAR=2001
DGENRE=Blues
TTITLE0=Blowing the Wind
TTITLE1=Don't Think Twice,it's All Right
TTITLE2=The Times They Are A-changing
TTITLE3=It Ainit Me,Babe
TTITLE4=Maggie's Farm
TTITLE5=It's All Over Now,Baby Blue
TTITLE6=Mr. TamBourine man
TTITLE7=Subterranean Homesick Blues
TTITLE8=Like A Rolling Stone
TTITLE9=Positively 4th Street
TTITLE10=Can you Please Crawl Out Your Window?
TTITLE11=I Want You
TTITLE12=Just Like A Woman
TTITLE13=A Hard Rainis A-Gonna Fall
TTITLE14=All Along the Watchtower
TTITLE15=Quinn the Eskimo(The Mighty Quinn)
TTITLE16=I'll Be Your Baby Tonight
TTITLE17=Lay,Lady,Lay
TTITLE18=If Not For You
TTITLE19=I Shall Be Released
TTITLE20=You Aint Going NoWhere
EXTD=
EXTT0=
EXTT1=
EXTT2=
EXTT3=
EXTT4=
EXTT5=
EXTT6=
EXTT7=
EXTT8=
EXTT9=
EXTT10=
EXTT11=
EXTT12=
EXTT13=
EXTT14=
EXTT15=
EXTT16=
EXTT17=
EXTT18=
EXTT19=
EXTT20=
PLAYORDER=
